<svg width="637" height="700" viewBox="0 0 637 700" fill="none" xmlns="http://www.w3.org/2000/svg">
<rect width="637" height="700" fill="white"/>
<path d="M318 502.782C318 502.782 224.542 402.404 181.103 327.022C137.919 252.083 98 121.731 98 121.731C98 121.731 229.917 72 318 72C406.083 72 538 121.731 538 121.731C538 121.731 507.917 253.038 466.205 327.022C422.11 405.232 318 502.782 318 502.782Z" fill="#0C0C0C"/>
<path d="M316.579 478.851C316.579 478.851 233.566 389.677 194.982 322.709C156.625 256.135 121.168 140.333 121.168 140.333C121.168 140.333 238.341 96.1529 316.579 96.1529C394.817 96.1529 511.99 140.333 511.99 140.333C511.99 140.333 485.269 256.983 448.219 322.709C409.053 392.189 316.579 478.851 316.579 478.851Z" fill="#940A3A"/>
<path d="M317.682 460.626C317.682 460.626 242.505 379.894 207.562 319.266C172.825 258.994 140.715 154.154 140.715 154.154C140.715 154.154 246.828 114.156 317.682 114.156C388.536 114.156 494.65 154.154 494.65 154.154C494.65 154.154 470.451 259.762 436.898 319.266C401.429 382.168 317.682 460.626 317.682 460.626Z" fill="#AA9C0C"/>
<path d="M173.92 574.444L178.336 573.724V538.78L173.92 538.108V537.052H192.304C195.824 537.052 198.944 537.852 201.664 539.452C204.416 541.02 206.56 543.26 208.096 546.172C209.632 549.052 210.4 552.412 210.4 556.252C210.4 560.092 209.632 563.468 208.096 566.38C206.56 569.26 204.416 571.5 201.664 573.1C198.912 574.668 195.792 575.452 192.304 575.452H173.92V574.444ZM192.304 574.3C194.64 574.3 196.704 573.756 198.496 572.668C200.32 571.58 201.744 569.964 202.768 567.82C203.792 565.644 204.304 563.02 204.304 559.948V552.556C204.304 549.484 203.792 546.876 202.768 544.732C201.744 542.588 200.32 540.972 198.496 539.884C196.704 538.796 194.64 538.252 192.304 538.252H183.616V574.3H192.304ZM214.889 575.452V574.444L219.305 573.724V538.78L214.889 538.108V537.052H243.785V548.044H242.489L238.793 538.252H224.585V555.532H230.825L233.657 548.572H234.905V563.74H233.657L230.777 556.684H224.585V574.3H239.657L243.593 563.74H244.841V575.452H214.889ZM249.483 575.452V574.444L253.898 573.724V538.78L249.483 538.108V537.052H278.379V548.044H277.083L273.387 538.252H259.179V556.252H267.291L270.123 549.292H271.419V564.46H270.123L267.291 557.404H259.179V573.724L263.595 574.444V575.452H249.483ZM281.733 575.452V574.444L286.148 573.724V538.78L281.733 538.108V537.052H310.629V548.044H309.333L305.637 538.252H291.429V555.532H297.669L300.501 548.572H301.749V563.74H300.501L297.621 556.684H291.429V574.3H306.501L310.437 563.74H311.685V575.452H281.733ZM316.47 575.452V574.444L320.934 572.524V539.98L316.47 538.108V537.052H325.398L346.086 566.044V539.98L341.622 538.108V537.052H351.846V538.108L347.286 539.98V575.452H346.086L322.134 541.804V572.524L326.742 574.444V575.452H316.47ZM355.42 574.444L359.836 573.724V538.78L355.42 538.108V537.052H373.804C377.324 537.052 380.444 537.852 383.164 539.452C385.916 541.02 388.06 543.26 389.596 546.172C391.132 549.052 391.9 552.412 391.9 556.252C391.9 560.092 391.132 563.468 389.596 566.38C388.06 569.26 385.916 571.5 383.164 573.1C380.412 574.668 377.292 575.452 373.804 575.452H355.42V574.444ZM373.804 574.3C376.14 574.3 378.204 573.756 379.996 572.668C381.82 571.58 383.244 569.964 384.268 567.82C385.292 565.644 385.804 563.02 385.804 559.948V552.556C385.804 549.484 385.292 546.876 384.268 544.732C383.244 542.588 381.82 540.972 379.996 539.884C378.204 538.796 376.14 538.252 373.804 538.252H365.116V574.3H373.804ZM396.389 575.452V574.444L400.805 573.724V538.78L396.389 538.108V537.052H425.285V548.044H423.989L420.293 538.252H406.085V555.532H412.325L415.157 548.572H416.405V563.74H415.157L412.277 556.684H406.085V574.3H421.157L425.093 563.74H426.341V575.452H396.389ZM458.871 575.932C457.079 575.932 455.734 575.5 454.839 574.636C453.943 573.772 453.335 572.3 453.015 570.22L452.103 563.788C451.783 561.612 451.031 559.916 449.847 558.7C448.695 557.452 446.887 556.828 444.423 556.828H440.679V573.724L445.095 574.444V575.452H430.983V574.444L435.398 573.724V538.78L430.983 538.108V537.052H444.423C449.639 537.052 453.415 537.868 455.751 539.5C458.087 541.132 459.255 543.612 459.255 546.94C459.255 552.444 455.927 555.628 449.271 556.492V556.78C451.735 557.132 453.703 558.012 455.175 559.42C456.679 560.828 457.623 562.7 458.007 565.036L458.631 569.164C458.887 570.956 459.175 572.172 459.495 572.812C459.847 573.452 460.375 573.772 461.079 573.772C461.559 573.772 462.071 573.628 462.615 573.34C463.159 573.02 463.671 572.62 464.151 572.14L464.967 573.004C464.039 574.06 463.079 574.812 462.087 575.26C461.095 575.708 460.023 575.932 458.871 575.932ZM446.055 555.676C448.391 555.676 450.199 554.972 451.479 553.564C452.791 552.124 453.447 550.012 453.447 547.228V546.22C453.447 540.908 450.439 538.252 444.423 538.252H440.679V555.676H446.055Z" fill="#940A3A"/>
</svg>
