<svg width="40" height="40" viewBox="0 0 40 40" fill="none" xmlns="http://www.w3.org/2000/svg">
<path d="M13.0047 9.55176C13.9863 9.55176 14.8697 9.63676 15.6797 9.81009C16.4847 9.98176 17.1713 10.2651 17.7513 10.6568C18.323 11.0484 18.7697 11.5684 19.0913 12.2218C19.403 12.8668 19.558 13.6734 19.558 14.6268C19.558 15.6601 19.3247 16.5234 18.8563 17.2118C18.3847 17.9018 17.6897 18.4668 16.763 18.9034C18.0247 19.2684 18.9597 19.9068 19.5797 20.8134C20.203 21.7284 20.508 22.8234 20.508 24.1068C20.508 25.1484 20.3097 26.0434 19.9113 26.7951C19.5275 27.5356 18.9706 28.1725 18.288 28.6518C17.581 29.1441 16.7912 29.5054 15.9563 29.7184C15.081 29.9482 14.1796 30.0636 13.2747 30.0618H3.33301V9.55176H13.0047ZM12.4197 17.8384C13.2197 17.8384 13.883 17.6484 14.4063 17.2634C14.9263 16.8834 15.178 16.2568 15.178 15.3984C15.178 14.9218 15.093 14.5284 14.9263 14.2201C14.764 13.9235 14.5236 13.6768 14.2313 13.5068C13.9254 13.3253 13.5877 13.2037 13.2363 13.1484C12.8533 13.077 12.4643 13.0429 12.0747 13.0468H7.84967V17.8384H12.4197V17.8384ZM12.6713 26.5701C13.1163 26.5701 13.5397 26.5318 13.938 26.4418C14.3397 26.3551 14.6963 26.2151 14.9997 26.0068C15.303 25.8068 15.553 25.5351 15.733 25.1884C15.9147 24.8451 16.003 24.3968 16.003 23.8584C16.003 22.8018 15.7047 22.0501 15.1147 21.5951C14.523 21.1451 13.7297 20.9218 12.758 20.9218H7.84967V26.5718H12.6713V26.5701ZM26.9463 26.5018C27.558 27.0984 28.4397 27.3984 29.5863 27.3984C30.408 27.3984 31.118 27.1901 31.7163 26.7768C32.3063 26.3618 32.6663 25.9184 32.8047 25.4601H36.3963C35.8197 27.2468 34.9447 28.5234 33.748 29.2918C32.5663 30.0634 31.128 30.4468 29.448 30.4468C28.278 30.4468 27.2247 30.2584 26.2813 29.8851C25.3759 29.5325 24.5576 28.9877 23.883 28.2884C23.2195 27.5728 22.7066 26.7311 22.3747 25.8134C22.0098 24.7986 21.8292 23.7268 21.8413 22.6484C21.8413 21.5384 22.0263 20.5001 22.3897 19.5418C22.7346 18.6154 23.2642 17.7688 23.9463 17.0534C24.6213 16.3534 25.4213 15.8018 26.353 15.3968C27.3327 14.9847 28.3869 14.7793 29.4497 14.7934C30.7063 14.7934 31.8047 15.0368 32.748 15.5268C33.6628 15.9945 34.456 16.669 35.0647 17.4968C35.6697 18.3184 36.1013 19.2601 36.3697 20.3151C36.638 21.3684 36.7313 22.4684 36.6547 23.6201H25.9363C25.938 24.7934 26.333 25.9051 26.9463 26.5018V26.5018ZM31.633 18.7001C31.148 18.1634 30.328 17.8734 29.3247 17.8734C28.673 17.8734 28.1347 17.9818 27.7013 18.2051C27.3051 18.4052 26.9536 18.6836 26.668 19.0234C26.4172 19.332 26.2312 19.688 26.1213 20.0701C26.0252 20.3887 25.9632 20.7167 25.9363 21.0484H32.573C32.4763 20.0084 32.1197 19.2401 31.633 18.7001V18.7001ZM25.103 10.9284H33.418V12.9534H25.103V10.9284Z" fill="#2E2475"/>
</svg>
