<svg width="40" height="40" viewBox="0 0 40 40" fill="none" xmlns="http://www.w3.org/2000/svg">
<path fill-rule="evenodd" clip-rule="evenodd" d="M20 0C8.95833 0 0 8.95833 0 20C0 31.0417 8.95833 40 20 40C31.02 40 40 31.0417 40 20C40 8.95833 31.02 0 20 0ZM33.21 9.21833C35.6725 12.2172 37.0351 15.9682 37.0717 19.8483C36.5083 19.74 30.8683 18.59 25.185 19.3067C25.0533 19.0233 24.945 18.72 24.815 18.4167C24.4615 17.5823 24.0858 16.7576 23.6883 15.9433C29.9783 13.3833 32.8417 9.69667 33.21 9.21833V9.21833ZM20 2.95167C24.3383 2.95167 28.3083 4.57667 31.3233 7.245C31.02 7.67833 28.4383 11.1283 22.365 13.405C19.565 8.265 16.465 4.055 15.9867 3.405C17.3022 3.09781 18.6491 2.94512 20 2.95V2.95167ZM12.7333 4.555C13.1883 5.16333 16.225 9.39333 19.0667 14.425C11.0833 16.5517 4.03333 16.5083 3.275 16.5083C4.38167 11.215 7.96167 6.81167 12.7333 4.555ZM2.90667 20.0217V19.5017C3.645 19.5233 11.93 19.6317 20.4567 17.0717C20.955 18.0267 21.41 19.0017 21.8433 19.9783C21.6267 20.0433 21.3883 20.1083 21.1717 20.1733C12.365 23.015 7.67833 30.78 7.28833 31.4317C4.46735 28.3009 2.90633 24.2359 2.90667 20.0217V20.0217ZM20 37.0933C16.0517 37.0933 12.4083 35.7483 9.52333 33.4933C9.82667 32.8633 13.2967 26.1817 22.9283 22.82C22.9717 22.7983 22.995 22.7983 23.0367 22.7767C25.445 29.0017 26.42 34.23 26.6817 35.7267C24.62 36.6167 22.365 37.0933 20 37.0933ZM29.5233 34.165C29.35 33.1233 28.4383 28.135 26.2033 21.995C31.5617 21.15 36.2467 22.5383 36.8333 22.7333C36.095 27.4833 33.3617 31.5833 29.5233 34.165Z" fill="#2E2475"/>
</svg>
