<svg width="40" height="40" viewBox="0 0 40 40" fill="none" xmlns="http://www.w3.org/2000/svg">
<path fill-rule="evenodd" clip-rule="evenodd" d="M15.7147 14.948H21.9047V18.0313C22.7963 16.258 25.083 14.6647 28.518 14.6647C35.103 14.6647 36.6663 18.1947 36.6663 24.6713V36.6663H29.9997V26.1463C29.9997 22.458 29.108 20.378 26.838 20.378C23.6897 20.378 22.3813 22.6197 22.3813 26.1447V36.6663H15.7147V14.948V14.948ZM4.28301 36.383H10.9497V14.6647H4.28301V36.383V36.383ZM11.9047 7.58301C11.9049 8.1418 11.7941 8.69507 11.5787 9.21065C11.3632 9.72624 11.0474 10.1939 10.6497 10.5863C9.84368 11.3874 8.75269 11.8358 7.61634 11.833C6.48199 11.8322 5.39353 11.385 4.58634 10.588C4.19003 10.1942 3.87532 9.72605 3.66025 9.21039C3.44518 8.69474 3.33397 8.14172 3.33301 7.58301C3.33301 6.45468 3.78301 5.37467 4.58801 4.57801C5.39448 3.77994 6.48341 3.33251 7.61801 3.33301C8.75467 3.33301 9.84467 3.78134 10.6497 4.57801C11.453 5.37467 11.9047 6.45468 11.9047 7.58301Z" fill="#2E2475"/>
</svg>
