<svg width="40" height="40" viewBox="0 0 40 40" fill="none" xmlns="http://www.w3.org/2000/svg">
<path d="M36.5947 11.2169C36.6106 11.1909 36.6162 11.1598 36.6104 11.1299C36.6045 11.1 36.5876 11.0733 36.563 11.0552C36.5563 11.0486 36.5497 11.0419 36.543 11.0386L36.533 11.0352L26.478 6.00524C26.3253 5.93473 26.1595 5.89671 25.9913 5.89358C25.7972 5.89234 25.606 5.94011 25.4352 6.03247C25.2645 6.12482 25.1199 6.25878 25.0147 6.42191L19.2247 15.8319L26.4897 27.6369L36.5947 11.2169ZM34.8213 33.7886C35.8397 34.2986 36.6663 33.9419 36.6663 32.9919V14.1386L26.9847 29.8702L34.8213 33.7886ZM16.0363 13.6886V24.3986L25.5547 29.1569L16.0363 13.6886ZM4.25634 29.6186L12.9063 33.9436C13.0987 34.0455 13.3121 34.1014 13.5297 34.1069C14.068 34.1069 14.4447 33.6902 14.4447 32.9919V11.1686C14.4447 11.1485 14.4393 11.1287 14.429 11.1114C14.4188 11.0941 14.404 11.0799 14.3863 11.0702L4.56467 6.16191C4.41063 6.07945 4.23936 6.03435 4.06467 6.03024C3.63467 6.03024 3.33301 6.36191 3.33301 6.92024V28.1252C3.33301 28.6936 3.74967 29.3652 4.25634 29.6186Z" fill="#2E2475"/>
</svg>
